<svg xmlns="http://www.w3.org/2000/svg" xmlns:xlink="http://www.w3.org/1999/xlink" contentStyleType="text/css" data-diagram-type="SEQUENCE" height="531px" preserveAspectRatio="none" style="width:868px;height:531px;background:#1B1B1B;" version="1.1" viewBox="0 0 868 531" width="868px" zoomAndPan="magnify"><defs/><g><rect fill="#1B1B1B" height="531" style="stroke:none;stroke-width:1;" width="868" x="0" y="0"/><g><title>User</title><rect fill="#000000" fill-opacity="0.00000" height="369.5938" width="8" x="19.9551" y="81.2969"/><line style="stroke:#E7E7E7;stroke-width:0.5;stroke-dasharray:5,5;" x1="23" x2="23" y1="81.2969" y2="450.8906"/></g><g><title>Frontend .React.</title><rect fill="#000000" fill-opacity="0.00000" height="369.5938" width="8" x="357.2817" y="81.2969"/><line style="stroke:#E7E7E7;stroke-width:0.5;stroke-dasharray:5,5;" x1="360.9868" x2="360.9868" y1="81.2969" y2="450.8906"/></g><g><title>Backend .Express.</title><rect fill="#000000" fill-opacity="0.00000" height="369.5938" width="8" x="596.4736" y="81.2969"/><line style="stroke:#E7E7E7;stroke-width:0.5;stroke-dasharray:5,5;" x1="600.1187" x2="600.1187" y1="81.2969" y2="450.8906"/></g><g><title>File Storage</title><rect fill="#000000" fill-opacity="0.00000" height="369.5938" width="8" x="727.6646" y="81.2969"/><line style="stroke:#E7E7E7;stroke-width:0.5;stroke-dasharray:5,5;" x1="730.8286" x2="730.8286" y1="81.2969" y2="450.8906"/></g><g><title>SQLite DB</title><rect fill="#000000" fill-opacity="0.00000" height="369.5938" width="8" x="824.7671" y="81.2969"/><line style="stroke:#E7E7E7;stroke-width:0.5;stroke-dasharray:5,5;" x1="828.5005" x2="828.5005" y1="81.2969" y2="450.8906"/></g><g class="participant participant-head" data-participant="User"><text fill="#FFFFFF" font-family="sans-serif" font-size="14" lengthAdjust="spacing" textLength="31.9102" x="5" y="77.9951">User</text><ellipse cx="23.9551" cy="13.5" fill="#222222" rx="8" ry="8" style="stroke:#E7E7E7;stroke-width:0.5;"/><path d="M23.9551,21.5 L23.9551,48.5 M10.9551,29.5 L36.9551,29.5 M23.9551,48.5 L10.9551,63.5 M23.9551,48.5 L36.9551,63.5" fill="none" style="stroke:#E7E7E7;stroke-width:0.5;"/></g><g class="participant participant-tail" data-participant="User"><text fill="#FFFFFF" font-family="sans-serif" font-size="14" lengthAdjust="spacing" textLength="31.9102" x="5" y="462.8857">User</text><ellipse cx="23.9551" cy="474.6875" fill="#222222" rx="8" ry="8" style="stroke:#E7E7E7;stroke-width:0.5;"/><path d="M23.9551,482.6875 L23.9551,509.6875 M10.9551,490.6875 L36.9551,490.6875 M23.9551,509.6875 L10.9551,524.6875 M23.9551,509.6875 L36.9551,524.6875" fill="none" style="stroke:#E7E7E7;stroke-width:0.5;"/></g><g class="participant participant-head" data-participant="FE"><rect fill="#222222" height="30.2969" rx="2.5" ry="2.5" style="stroke:#E7E7E7;stroke-width:0.5;" width="132.5898" x="294.9868" y="50"/><text fill="#FFFFFF" font-family="sans-serif" font-size="14" lengthAdjust="spacing" textLength="118.5898" x="301.9868" y="69.9951">Frontend (React)</text></g><g class="participant participant-tail" data-participant="FE"><rect fill="#222222" height="30.2969" rx="2.5" ry="2.5" style="stroke:#E7E7E7;stroke-width:0.5;" width="132.5898" x="294.9868" y="449.8906"/><text fill="#FFFFFF" font-family="sans-serif" font-size="14" lengthAdjust="spacing" textLength="118.5898" x="301.9868" y="469.8857">Frontend (React)</text></g><g class="participant participant-head" data-participant="BE"><rect fill="#222222" height="30.2969" rx="2.5" ry="2.5" style="stroke:#E7E7E7;stroke-width:0.5;" width="144.71" x="528.1187" y="50"/><text fill="#FFFFFF" font-family="sans-serif" font-size="14" lengthAdjust="spacing" textLength="130.71" x="535.1187" y="69.9951">Backend (Express)</text></g><g class="participant participant-tail" data-participant="BE"><rect fill="#222222" height="30.2969" rx="2.5" ry="2.5" style="stroke:#E7E7E7;stroke-width:0.5;" width="144.71" x="528.1187" y="449.8906"/><text fill="#FFFFFF" font-family="sans-serif" font-size="14" lengthAdjust="spacing" textLength="130.71" x="535.1187" y="469.8857">Backend (Express)</text></g><g class="participant participant-head" data-participant="Storage"><rect fill="#222222" height="30.2969" rx="2.5" ry="2.5" style="stroke:#E7E7E7;stroke-width:0.5;" width="97.6719" x="682.8286" y="50"/><text fill="#FFFFFF" font-family="sans-serif" font-size="14" lengthAdjust="spacing" textLength="83.6719" x="689.8286" y="69.9951">File Storage</text></g><g class="participant participant-tail" data-participant="Storage"><rect fill="#222222" height="30.2969" rx="2.5" ry="2.5" style="stroke:#E7E7E7;stroke-width:0.5;" width="97.6719" x="682.8286" y="449.8906"/><text fill="#FFFFFF" font-family="sans-serif" font-size="14" lengthAdjust="spacing" textLength="83.6719" x="689.8286" y="469.8857">File Storage</text></g><g class="participant participant-head" data-participant="DB"><text fill="#FFFFFF" font-family="sans-serif" font-size="14" lengthAdjust="spacing" textLength="70.5332" x="790.5005" y="77.9951">SQLite DB</text><path d="M810.7671,29 C810.7671,19 828.7671,19 828.7671,19 C828.7671,19 846.7671,19 846.7671,29 L846.7671,55 C846.7671,65 828.7671,65 828.7671,65 C828.7671,65 810.7671,65 810.7671,55 L810.7671,29" fill="#222222" style="stroke:#E7E7E7;stroke-width:0.5;"/><path d="M810.7671,29 C810.7671,39 828.7671,39 828.7671,39 C828.7671,39 846.7671,39 846.7671,29" fill="none" style="stroke:#E7E7E7;stroke-width:0.5;"/></g><g class="participant participant-tail" data-participant="DB"><text fill="#FFFFFF" font-family="sans-serif" font-size="14" lengthAdjust="spacing" textLength="70.5332" x="790.5005" y="462.8857">SQLite DB</text><path d="M810.7671,476.1875 C810.7671,466.1875 828.7671,466.1875 828.7671,466.1875 C828.7671,466.1875 846.7671,466.1875 846.7671,476.1875 L846.7671,502.1875 C846.7671,512.1875 828.7671,512.1875 828.7671,512.1875 C828.7671,512.1875 810.7671,512.1875 810.7671,502.1875 L810.7671,476.1875" fill="#222222" style="stroke:#E7E7E7;stroke-width:0.5;"/><path d="M810.7671,476.1875 C810.7671,486.1875 828.7671,486.1875 828.7671,486.1875 C828.7671,486.1875 846.7671,486.1875 846.7671,476.1875" fill="none" style="stroke:#E7E7E7;stroke-width:0.5;"/></g><g class="message" data-participant-1="User" data-participant-2="FE"><polygon fill="#E7E7E7" points="349.2817,108.4297,359.2817,112.4297,349.2817,116.4297,353.2817,112.4297" style="stroke:#E7E7E7;stroke-width:1;"/><line style="stroke:#E7E7E7;stroke-width:1;" x1="23.9551" x2="355.2817" y1="112.4297" y2="112.4297"/><text fill="#FFFFFF" font-family="sans-serif" font-size="13" lengthAdjust="spacing" textLength="133.8276" x="30.9551" y="107.3638">Open Add Note form</text></g><g class="message" data-participant-1="User" data-participant-2="FE"><polygon fill="#E7E7E7" points="349.2817,137.5625,359.2817,141.5625,349.2817,145.5625,353.2817,141.5625" style="stroke:#E7E7E7;stroke-width:1;"/><line style="stroke:#E7E7E7;stroke-width:1;" x1="23.9551" x2="355.2817" y1="141.5625" y2="141.5625"/><text fill="#FFFFFF" font-family="sans-serif" font-size="13" lengthAdjust="spacing" textLength="313.3267" x="30.9551" y="136.4966">Fill title, content, select category, choose image</text></g><g class="message" data-participant-1="FE" data-participant-2="BE"><polygon fill="#E7E7E7" points="588.4736,166.6953,598.4736,170.6953,588.4736,174.6953,592.4736,170.6953" style="stroke:#E7E7E7;stroke-width:1;"/><line style="stroke:#E7E7E7;stroke-width:1;" x1="361.2817" x2="594.4736" y1="170.6953" y2="170.6953"/><text fill="#FFFFFF" font-family="sans-serif" font-size="13" lengthAdjust="spacing" textLength="166.0293" x="368.2817" y="165.6294">POST /api/upload (image)</text></g><g class="message" data-participant-1="BE" data-participant-2="Storage"><polygon fill="#E7E7E7" points="719.6646,195.8281,729.6646,199.8281,719.6646,203.8281,723.6646,199.8281" style="stroke:#E7E7E7;stroke-width:1;"/><line style="stroke:#E7E7E7;stroke-width:1;" x1="600.4736" x2="725.6646" y1="199.8281" y2="199.8281"/><text fill="#FFFFFF" font-family="sans-serif" font-size="13" lengthAdjust="spacing" textLength="100.4644" x="607.4736" y="194.7622">Save image file</text></g><g class="message" data-participant-1="BE" data-participant-2="FE"><polygon fill="#E7E7E7" points="372.2817,224.9609,362.2817,228.9609,372.2817,232.9609,368.2817,228.9609" style="stroke:#E7E7E7;stroke-width:1;"/><line style="stroke:#E7E7E7;stroke-width:1;" x1="366.2817" x2="599.4736" y1="228.9609" y2="228.9609"/><text fill="#FFFFFF" font-family="sans-serif" font-size="13" lengthAdjust="spacing" textLength="107.0469" x="378.2817" y="223.895">Return imageUrl</text></g><g class="message" data-participant-1="FE" data-participant-2="BE"><polygon fill="#E7E7E7" points="588.4736,254.0938,598.4736,258.0938,588.4736,262.0938,592.4736,258.0938" style="stroke:#E7E7E7;stroke-width:1;"/><line style="stroke:#E7E7E7;stroke-width:1;" x1="361.2817" x2="594.4736" y1="258.0938" y2="258.0938"/><text fill="#FFFFFF" font-family="sans-serif" font-size="13" lengthAdjust="spacing" textLength="178.8135" x="368.2817" y="253.0278">POST /api/posts (note data)</text></g><g class="message" data-participant-1="BE" data-participant-2="DB"><polygon fill="#E7E7E7" points="816.7671,283.2266,826.7671,287.2266,816.7671,291.2266,820.7671,287.2266" style="stroke:#E7E7E7;stroke-width:1;"/><line style="stroke:#E7E7E7;stroke-width:1;" x1="600.4736" x2="822.7671" y1="287.2266" y2="287.2266"/><text fill="#FFFFFF" font-family="sans-serif" font-size="13" lengthAdjust="spacing" textLength="70.7065" x="607.4736" y="282.1606">Insert note</text></g><g class="message" data-participant-1="BE" data-participant-2="FE"><polygon fill="#E7E7E7" points="372.2817,312.3594,362.2817,316.3594,372.2817,320.3594,368.2817,316.3594" style="stroke:#E7E7E7;stroke-width:1;"/><line style="stroke:#E7E7E7;stroke-width:1;" x1="366.2817" x2="599.4736" y1="316.3594" y2="316.3594"/><text fill="#FFFFFF" font-family="sans-serif" font-size="13" lengthAdjust="spacing" textLength="131.3076" x="378.2817" y="311.2935">Return created note</text></g><g class="message" data-participant-1="FE" data-participant-2="BE"><polygon fill="#E7E7E7" points="588.4736,341.4922,598.4736,345.4922,588.4736,349.4922,592.4736,345.4922" style="stroke:#E7E7E7;stroke-width:1;"/><line style="stroke:#E7E7E7;stroke-width:1;" x1="361.2817" x2="594.4736" y1="345.4922" y2="345.4922"/><text fill="#FFFFFF" font-family="sans-serif" font-size="13" lengthAdjust="spacing" textLength="215.1919" x="368.2817" y="340.4263">POST /api/images (image record)</text></g><g class="message" data-participant-1="BE" data-participant-2="DB"><polygon fill="#E7E7E7" points="816.7671,370.625,826.7671,374.625,816.7671,378.625,820.7671,374.625" style="stroke:#E7E7E7;stroke-width:1;"/><line style="stroke:#E7E7E7;stroke-width:1;" x1="600.4736" x2="822.7671" y1="374.625" y2="374.625"/><text fill="#FFFFFF" font-family="sans-serif" font-size="13" lengthAdjust="spacing" textLength="128.083" x="607.4736" y="369.5591">Insert image record</text></g><g class="message" data-participant-1="BE" data-participant-2="FE"><polygon fill="#E7E7E7" points="372.2817,399.7578,362.2817,403.7578,372.2817,407.7578,368.2817,403.7578" style="stroke:#E7E7E7;stroke-width:1;"/><line style="stroke:#E7E7E7;stroke-width:1;" x1="366.2817" x2="599.4736" y1="403.7578" y2="403.7578"/><text fill="#FFFFFF" font-family="sans-serif" font-size="13" lengthAdjust="spacing" textLength="134.748" x="378.2817" y="398.6919">Return image record</text></g><g class="message" data-participant-1="FE" data-participant-2="User"><polygon fill="#E7E7E7" points="34.9551,428.8906,24.9551,432.8906,34.9551,436.8906,30.9551,432.8906" style="stroke:#E7E7E7;stroke-width:1;"/><line style="stroke:#E7E7E7;stroke-width:1;" x1="28.9551" x2="360.2817" y1="432.8906" y2="432.8906"/><text fill="#FFFFFF" font-family="sans-serif" font-size="13" lengthAdjust="spacing" textLength="152.6167" x="40.9551" y="427.8247">Show success message</text></g><!--SRC=[TP7DQiCm48JlVeebfmHISk-XKE4O2gLfu-O1jj8c4PKb8Qtxy_PTomuqnRq8mNoxCoEXvf3Wa2bL4HDRRIDwXaMJWcVo1fPxGish1M26PdiDATJlXTb-nKGvZvJwGpNM4RHYWoSgm7Il33A-OIPOj2-FbWbgLVHQLTMG26xkn19kOHV9mxqny1I4EeRKNUlYu80jErg3Bhbv3PaSQGQDJAUGlaKvXo1cjXkyPKwcrJ3zl6jVOOFHRlhe0agTWgmgLPWfhO0jVapZS9HEaruIx8dxv4VnaDpy-XWoPrZweSJG_U9GAy4Ul3HY6CIPnJgHz32ZFBkyMESfEoJI8PavWz_wVmqkycXKdbhQdyCdv5vh-MZev13m1m00]--></g></svg>