<svg xmlns="http://www.w3.org/2000/svg" xmlns:xlink="http://www.w3.org/1999/xlink" contentStyleType="text/css" data-diagram-type="CLASS" height="812px" preserveAspectRatio="none" style="width:1420px;height:812px;background:#1B1B1B;" version="1.1" viewBox="0 0 1420 812" width="1420px" zoomAndPan="magnify"><defs/><g><rect fill="#1B1B1B" height="812" style="stroke:none;stroke-width:1;" width="1420" x="0" y="0"/><!--class Note--><g class="entity" data-entity="Note" data-source-line="1" data-uid="ent0002" id="entity_Note"><rect fill="#313139" height="129.4844" rx="2.5" ry="2.5" style="stroke:#E7E7E7;stroke-width:0.5;" width="312.3164" x="82" y="436.57"/><ellipse cx="217.3379" cy="452.57" fill="#2E5233" rx="11" ry="11" style="stroke:#E7E7E7;stroke-width:1;"/><path d="M220.3066,458.2106 Q219.7285,458.5075 219.0879,458.6481 Q218.4473,458.8044 217.7441,458.8044 Q215.2441,458.8044 213.916,457.1638 Q212.6035,455.5075 212.6035,452.3825 Q212.6035,449.2575 213.916,447.6013 Q215.2441,445.945 217.7441,445.945 Q218.4473,445.945 219.0879,446.1013 Q219.7441,446.2575 220.3066,446.5544 L220.3066,449.2731 Q219.6816,448.695 219.0879,448.4294 Q218.4941,448.1481 217.8691,448.1481 Q216.5254,448.1481 215.8379,449.2263 Q215.1504,450.2888 215.1504,452.3825 Q215.1504,454.4763 215.8379,455.5544 Q216.5254,456.6169 217.8691,456.6169 Q218.4941,456.6169 219.0879,456.3513 Q219.6816,456.07 220.3066,455.4919 L220.3066,458.2106 Z " fill="#FFFFFF"/><text fill="#FFFFFF" font-family="sans-serif" font-size="14" lengthAdjust="spacing" textLength="33.1406" x="237.8379" y="457.4167">Note</text><line style="stroke:#E7E7E7;stroke-width:0.5;" x1="83" x2="393.3164" y1="468.57" y2="468.57"/><ellipse cx="93" cy="482.2184" fill="none" rx="3" ry="3" style="stroke:#038048;stroke-width:1;"/><text fill="#FFFFFF" font-family="sans-serif" font-size="14" lengthAdjust="spacing" textLength="62.1318" x="102" y="485.5651">id: string</text><ellipse cx="93" cy="498.5153" fill="none" rx="3" ry="3" style="stroke:#038048;stroke-width:1;"/><text fill="#FFFFFF" font-family="sans-serif" font-size="14" lengthAdjust="spacing" textLength="76.7266" x="102" y="501.862">title: string</text><ellipse cx="93" cy="514.8122" fill="none" rx="3" ry="3" style="stroke:#038048;stroke-width:1;"/><text fill="#FFFFFF" font-family="sans-serif" font-size="14" lengthAdjust="spacing" textLength="102.9561" x="102" y="518.1589">content: string</text><ellipse cx="93" cy="531.1091" fill="none" rx="3" ry="3" style="stroke:#038048;stroke-width:1;"/><text fill="#FFFFFF" font-family="sans-serif" font-size="14" lengthAdjust="spacing" textLength="124.2432" x="102" y="534.4557">categoryId: string</text><line style="stroke:#E7E7E7;stroke-width:0.5;" x1="83" x2="393.3164" y1="541.7575" y2="541.7575"/><ellipse cx="93" cy="555.4059" fill="#84BE84" rx="3" ry="3" style="stroke:#038048;stroke-width:1;"/><text fill="#FFFFFF" font-family="sans-serif" font-size="14" lengthAdjust="spacing" textLength="286.3164" x="102" y="558.7526">constructor(id, title, content, categoryId)</text></g><!--class Category--><g class="entity" data-entity="Category" data-source-line="9" data-uid="ent0003" id="entity_Category"><rect fill="#313139" height="145.7813" rx="2.5" ry="2.5" style="stroke:#E7E7E7;stroke-width:0.5;" width="346.4004" x="711.95" y="659.35"/><ellipse cx="848.9251" cy="675.35" fill="#2E5233" rx="11" ry="11" style="stroke:#E7E7E7;stroke-width:1;"/><path d="M851.8938,680.9906 Q851.3157,681.2875 850.6751,681.4281 Q850.0345,681.5844 849.3313,681.5844 Q846.8313,681.5844 845.5032,679.9438 Q844.1907,678.2875 844.1907,675.1625 Q844.1907,672.0375 845.5032,670.3813 Q846.8313,668.725 849.3313,668.725 Q850.0345,668.725 850.6751,668.8813 Q851.3313,669.0375 851.8938,669.3344 L851.8938,672.0531 Q851.2688,671.475 850.6751,671.2094 Q850.0813,670.9281 849.4563,670.9281 Q848.1126,670.9281 847.4251,672.0063 Q846.7376,673.0688 846.7376,675.1625 Q846.7376,677.2563 847.4251,678.3344 Q848.1126,679.3969 849.4563,679.3969 Q850.0813,679.3969 850.6751,679.1313 Q851.2688,678.85 851.8938,678.2719 L851.8938,680.9906 Z " fill="#FFFFFF"/><text fill="#FFFFFF" font-family="sans-serif" font-size="14" lengthAdjust="spacing" textLength="63.9502" x="869.4251" y="680.1967">Category</text><line style="stroke:#E7E7E7;stroke-width:0.5;" x1="712.95" x2="1057.3504" y1="691.35" y2="691.35"/><ellipse cx="722.95" cy="704.9984" fill="none" rx="3" ry="3" style="stroke:#038048;stroke-width:1;"/><text fill="#FFFFFF" font-family="sans-serif" font-size="14" lengthAdjust="spacing" textLength="62.1318" x="731.95" y="708.3451">id: string</text><ellipse cx="722.95" cy="721.2953" fill="none" rx="3" ry="3" style="stroke:#038048;stroke-width:1;"/><text fill="#FFFFFF" font-family="sans-serif" font-size="14" lengthAdjust="spacing" textLength="89.0586" x="731.95" y="724.642">name: string</text><ellipse cx="722.95" cy="737.5922" fill="none" rx="3" ry="3" style="stroke:#038048;stroke-width:1;"/><text fill="#FFFFFF" font-family="sans-serif" font-size="14" lengthAdjust="spacing" textLength="83.8291" x="731.95" y="740.9389">color: string</text><ellipse cx="722.95" cy="753.8891" fill="none" rx="3" ry="3" style="stroke:#038048;stroke-width:1;"/><text fill="#FFFFFF" font-family="sans-serif" font-size="14" lengthAdjust="spacing" textLength="78.3809" x="731.95" y="757.2357">icon: string</text><ellipse cx="722.95" cy="770.1859" fill="none" rx="3" ry="3" style="stroke:#038048;stroke-width:1;"/><text fill="#FFFFFF" font-family="sans-serif" font-size="14" lengthAdjust="spacing" textLength="127.1963" x="731.95" y="773.5326">description: string</text><line style="stroke:#E7E7E7;stroke-width:0.5;" x1="712.95" x2="1057.3504" y1="780.8344" y2="780.8344"/><ellipse cx="722.95" cy="794.4828" fill="#84BE84" rx="3" ry="3" style="stroke:#038048;stroke-width:1;"/><text fill="#FFFFFF" font-family="sans-serif" font-size="14" lengthAdjust="spacing" textLength="320.4004" x="731.95" y="797.8295">constructor(id, name, color, icon, description)</text></g><!--class Image--><g class="entity" data-entity="Image" data-source-line="18" data-uid="ent0004" id="entity_Image"><rect fill="#313139" height="113.1875" rx="2.5" ry="2.5" style="stroke:#E7E7E7;stroke-width:0.5;" width="254.3066" x="7" y="230.08"/><ellipse cx="107.9805" cy="246.08" fill="#2E5233" rx="11" ry="11" style="stroke:#E7E7E7;stroke-width:1;"/><path d="M110.9492,251.7206 Q110.3711,252.0175 109.7305,252.1581 Q109.0898,252.3144 108.3867,252.3144 Q105.8867,252.3144 104.5586,250.6738 Q103.2461,249.0175 103.2461,245.8925 Q103.2461,242.7675 104.5586,241.1113 Q105.8867,239.455 108.3867,239.455 Q109.0898,239.455 109.7305,239.6113 Q110.3867,239.7675 110.9492,240.0644 L110.9492,242.7831 Q110.3242,242.205 109.7305,241.9394 Q109.1367,241.6581 108.5117,241.6581 Q107.168,241.6581 106.4805,242.7363 Q105.793,243.7988 105.793,245.8925 Q105.793,247.9863 106.4805,249.0644 Q107.168,250.1269 108.5117,250.1269 Q109.1367,250.1269 109.7305,249.8613 Q110.3242,249.58 110.9492,249.0019 L110.9492,251.7206 Z " fill="#FFFFFF"/><text fill="#FFFFFF" font-family="sans-serif" font-size="14" lengthAdjust="spacing" textLength="43.8457" x="128.4805" y="250.9267">Image</text><line style="stroke:#E7E7E7;stroke-width:0.5;" x1="8" x2="260.3066" y1="262.08" y2="262.08"/><ellipse cx="18" cy="275.7284" fill="none" rx="3" ry="3" style="stroke:#038048;stroke-width:1;"/><text fill="#FFFFFF" font-family="sans-serif" font-size="14" lengthAdjust="spacing" textLength="62.1318" x="27" y="279.0751">id: string</text><ellipse cx="18" cy="292.0253" fill="none" rx="3" ry="3" style="stroke:#038048;stroke-width:1;"/><text fill="#FFFFFF" font-family="sans-serif" font-size="14" lengthAdjust="spacing" textLength="92.6064" x="27" y="295.372">postId: string</text><ellipse cx="18" cy="308.3222" fill="none" rx="3" ry="3" style="stroke:#038048;stroke-width:1;"/><text fill="#FFFFFF" font-family="sans-serif" font-size="14" lengthAdjust="spacing" textLength="112.8545" x="27" y="311.6689">imageUrl: string</text><line style="stroke:#E7E7E7;stroke-width:0.5;" x1="8" x2="260.3066" y1="318.9706" y2="318.9706"/><ellipse cx="18" cy="332.6191" fill="#84BE84" rx="3" ry="3" style="stroke:#038048;stroke-width:1;"/><text fill="#FFFFFF" font-family="sans-serif" font-size="14" lengthAdjust="spacing" textLength="228.3066" x="27" y="335.9657">constructor(id, postId, imageUrl)</text></g><!--class PostService--><g class="entity" data-entity="PostService" data-source-line="25" data-uid="ent0005" id="entity_PostService"><rect fill="#313139" height="162.0781" rx="2.5" ry="2.5" style="stroke:#E7E7E7;stroke-width:0.5;" width="402.8789" x="429.71" y="420.27"/><ellipse cx="586.1333" cy="436.27" fill="#2E5233" rx="11" ry="11" style="stroke:#E7E7E7;stroke-width:1;"/><path d="M589.1021,441.9106 Q588.524,442.2075 587.8833,442.3481 Q587.2427,442.5044 586.5396,442.5044 Q584.0396,442.5044 582.7115,440.8638 Q581.399,439.2075 581.399,436.0825 Q581.399,432.9575 582.7115,431.3013 Q584.0396,429.645 586.5396,429.645 Q587.2427,429.645 587.8833,429.8013 Q588.5396,429.9575 589.1021,430.2544 L589.1021,432.9731 Q588.4771,432.395 587.8833,432.1294 Q587.2896,431.8481 586.6646,431.8481 Q585.3208,431.8481 584.6333,432.9263 Q583.9458,433.9888 583.9458,436.0825 Q583.9458,438.1763 584.6333,439.2544 Q585.3208,440.3169 586.6646,440.3169 Q587.2896,440.3169 587.8833,440.0513 Q588.4771,439.77 589.1021,439.1919 L589.1021,441.9106 Z " fill="#FFFFFF"/><text fill="#FFFFFF" font-family="sans-serif" font-size="14" lengthAdjust="spacing" textLength="81.5322" x="606.6333" y="441.1167">PostService</text><line style="stroke:#E7E7E7;stroke-width:0.5;" x1="430.71" x2="831.5889" y1="452.27" y2="452.27"/><line style="stroke:#E7E7E7;stroke-width:0.5;" x1="430.71" x2="831.5889" y1="460.27" y2="460.27"/><ellipse cx="440.71" cy="473.9184" fill="#84BE84" rx="3" ry="3" style="stroke:#038048;stroke-width:1;"/><text fill="#FFFFFF" font-family="sans-serif" font-size="14" lengthAdjust="spacing" textLength="203.8887" x="449.71" y="477.2651">getPosts(): Promise&lt;Note[]&gt;</text><ellipse cx="440.71" cy="490.2153" fill="#84BE84" rx="3" ry="3" style="stroke:#038048;stroke-width:1;"/><text fill="#FFFFFF" font-family="sans-serif" font-size="14" lengthAdjust="spacing" textLength="262.8828" x="449.71" y="493.562">addPost(note: Note): Promise&lt;Note&gt;</text><ellipse cx="440.71" cy="506.5122" fill="#84BE84" rx="3" ry="3" style="stroke:#038048;stroke-width:1;"/><text fill="#FFFFFF" font-family="sans-serif" font-size="14" lengthAdjust="spacing" textLength="263.4092" x="449.71" y="509.8589">editPost(note: Note): Promise&lt;Note&gt;</text><ellipse cx="440.71" cy="522.8091" fill="#84BE84" rx="3" ry="3" style="stroke:#038048;stroke-width:1;"/><text fill="#FFFFFF" font-family="sans-serif" font-size="14" lengthAdjust="spacing" textLength="265.4053" x="449.71" y="526.1557">deletePost(id: string): Promise&lt;void&gt;</text><ellipse cx="440.71" cy="539.1059" fill="#84BE84" rx="3" ry="3" style="stroke:#038048;stroke-width:1;"/><text fill="#FFFFFF" font-family="sans-serif" font-size="14" lengthAdjust="spacing" textLength="368.9355" x="449.71" y="542.4526">getImagesByPost(postId: string): Promise&lt;Image[]&gt;</text><ellipse cx="440.71" cy="555.4028" fill="#84BE84" rx="3" ry="3" style="stroke:#038048;stroke-width:1;"/><text fill="#FFFFFF" font-family="sans-serif" font-size="14" lengthAdjust="spacing" textLength="310.4131" x="449.71" y="558.7495">addImage(image: Image): Promise&lt;Image&gt;</text><ellipse cx="440.71" cy="571.6997" fill="#84BE84" rx="3" ry="3" style="stroke:#038048;stroke-width:1;"/><text fill="#FFFFFF" font-family="sans-serif" font-size="14" lengthAdjust="spacing" textLength="376.8789" x="449.71" y="575.0464">uploadImage(file: File): Promise&lt;{imageUrl: string}&gt;</text></g><!--class CategoryService--><g class="entity" data-entity="CategoryService" data-source-line="35" data-uid="ent0006" id="entity_CategoryService"><rect fill="#313139" height="113.1875" rx="2.5" ry="2.5" style="stroke:#E7E7E7;stroke-width:0.5;" width="415.5186" x="938.39" y="444.72"/><ellipse cx="1084.0536" cy="460.72" fill="#2E5233" rx="11" ry="11" style="stroke:#E7E7E7;stroke-width:1;"/><path d="M1087.0223,466.3606 Q1086.4442,466.6575 1085.8036,466.7981 Q1085.1629,466.9544 1084.4598,466.9544 Q1081.9598,466.9544 1080.6317,465.3137 Q1079.3192,463.6575 1079.3192,460.5325 Q1079.3192,457.4075 1080.6317,455.7512 Q1081.9598,454.095 1084.4598,454.095 Q1085.1629,454.095 1085.8036,454.2512 Q1086.4598,454.4075 1087.0223,454.7044 L1087.0223,457.4231 Q1086.3973,456.845 1085.8036,456.5794 Q1085.2098,456.2981 1084.5848,456.2981 Q1083.2411,456.2981 1082.5536,457.3762 Q1081.8661,458.4387 1081.8661,460.5325 Q1081.8661,462.6262 1082.5536,463.7044 Q1083.2411,464.7669 1084.5848,464.7669 Q1085.2098,464.7669 1085.8036,464.5012 Q1086.3973,464.22 1087.0223,463.6419 L1087.0223,466.3606 Z " fill="#FFFFFF"/><text fill="#FFFFFF" font-family="sans-serif" font-size="14" lengthAdjust="spacing" textLength="115.6914" x="1104.5536" y="465.5667">CategoryService</text><line style="stroke:#E7E7E7;stroke-width:0.5;" x1="939.39" x2="1352.9086" y1="476.72" y2="476.72"/><line style="stroke:#E7E7E7;stroke-width:0.5;" x1="939.39" x2="1352.9086" y1="484.72" y2="484.72"/><ellipse cx="949.39" cy="498.3684" fill="#84BE84" rx="3" ry="3" style="stroke:#038048;stroke-width:1;"/><text fill="#FFFFFF" font-family="sans-serif" font-size="14" lengthAdjust="spacing" textLength="273.0752" x="958.39" y="501.7151">getCategories(): Promise&lt;Category[]&gt;</text><ellipse cx="949.39" cy="514.6653" fill="#84BE84" rx="3" ry="3" style="stroke:#038048;stroke-width:1;"/><text fill="#FFFFFF" font-family="sans-serif" font-size="14" lengthAdjust="spacing" textLength="388.9922" x="958.39" y="518.012">addCategory(category: Category): Promise&lt;Category&gt;</text><ellipse cx="949.39" cy="530.9622" fill="#84BE84" rx="3" ry="3" style="stroke:#038048;stroke-width:1;"/><text fill="#FFFFFF" font-family="sans-serif" font-size="14" lengthAdjust="spacing" textLength="389.5186" x="958.39" y="534.3089">editCategory(category: Category): Promise&lt;Category&gt;</text><ellipse cx="949.39" cy="547.2591" fill="#84BE84" rx="3" ry="3" style="stroke:#038048;stroke-width:1;"/><text fill="#FFFFFF" font-family="sans-serif" font-size="14" lengthAdjust="spacing" textLength="299.5645" x="958.39" y="550.6057">deleteCategory(id: string): Promise&lt;void&gt;</text></g><!--class App--><g class="entity" data-entity="App" data-source-line="42" data-uid="ent0007" id="entity_App"><rect fill="#313139" height="162.0781" rx="2.5" ry="2.5" style="stroke:#E7E7E7;stroke-width:0.5;" width="202.1895" x="804.06" y="7"/><ellipse cx="887.2294" cy="23" fill="#2E5233" rx="11" ry="11" style="stroke:#E7E7E7;stroke-width:1;"/><path d="M890.1982,28.6406 Q889.6201,28.9375 888.9794,29.0781 Q888.3388,29.2344 887.6357,29.2344 Q885.1357,29.2344 883.8076,27.5938 Q882.4951,25.9375 882.4951,22.8125 Q882.4951,19.6875 883.8076,18.0313 Q885.1357,16.375 887.6357,16.375 Q888.3388,16.375 888.9794,16.5313 Q889.6357,16.6875 890.1982,16.9844 L890.1982,19.7031 Q889.5732,19.125 888.9794,18.8594 Q888.3857,18.5781 887.7607,18.5781 Q886.4169,18.5781 885.7294,19.6563 Q885.0419,20.7188 885.0419,22.8125 Q885.0419,24.9063 885.7294,25.9844 Q886.4169,27.0469 887.7607,27.0469 Q888.3857,27.0469 888.9794,26.7813 Q889.5732,26.5 890.1982,25.9219 L890.1982,28.6406 Z " fill="#FFFFFF"/><text fill="#FFFFFF" font-family="sans-serif" font-size="14" lengthAdjust="spacing" textLength="27.3506" x="907.7294" y="27.8467">App</text><line style="stroke:#E7E7E7;stroke-width:0.5;" x1="805.06" x2="1005.2495" y1="39" y2="39"/><line style="stroke:#E7E7E7;stroke-width:0.5;" x1="805.06" x2="1005.2495" y1="47" y2="47"/><ellipse cx="815.06" cy="60.6484" fill="#84BE84" rx="3" ry="3" style="stroke:#038048;stroke-width:1;"/><text fill="#FFFFFF" font-family="sans-serif" font-size="14" lengthAdjust="spacing" textLength="63.8818" x="824.06" y="63.9951">fetchAll()</text><ellipse cx="815.06" cy="76.9453" fill="#84BE84" rx="3" ry="3" style="stroke:#038048;stroke-width:1;"/><text fill="#FFFFFF" font-family="sans-serif" font-size="14" lengthAdjust="spacing" textLength="115.7803" x="824.06" y="80.292">handleAddPost()</text><ellipse cx="815.06" cy="93.2422" fill="#84BE84" rx="3" ry="3" style="stroke:#038048;stroke-width:1;"/><text fill="#FFFFFF" font-family="sans-serif" font-size="14" lengthAdjust="spacing" textLength="115.541" x="824.06" y="96.5889">handleEditPost()</text><ellipse cx="815.06" cy="109.5391" fill="#84BE84" rx="3" ry="3" style="stroke:#038048;stroke-width:1;"/><text fill="#FFFFFF" font-family="sans-serif" font-size="14" lengthAdjust="spacing" textLength="134.4287" x="824.06" y="112.8857">handleDeletePost()</text><ellipse cx="815.06" cy="125.8359" fill="#84BE84" rx="3" ry="3" style="stroke:#038048;stroke-width:1;"/><text fill="#FFFFFF" font-family="sans-serif" font-size="14" lengthAdjust="spacing" textLength="119.9502" x="824.06" y="129.1826">handleEditStart()</text><ellipse cx="815.06" cy="142.1328" fill="#84BE84" rx="3" ry="3" style="stroke:#038048;stroke-width:1;"/><text fill="#FFFFFF" font-family="sans-serif" font-size="14" lengthAdjust="spacing" textLength="176.1895" x="824.06" y="145.4795">handleCategoryChange()</text><ellipse cx="815.06" cy="158.4297" fill="#84BE84" rx="3" ry="3" style="stroke:#038048;stroke-width:1;"/><text fill="#FFFFFF" font-family="sans-serif" font-size="14" lengthAdjust="spacing" textLength="133.1777" x="824.06" y="161.7764">handleCancelEdit()</text></g><!--class PostForm--><g class="entity" data-entity="PostForm" data-source-line="52" data-uid="ent0008" id="entity_PostForm"><rect fill="#313139" height="64.2969" rx="2.5" ry="2.5" style="stroke:#E7E7E7;stroke-width:0.5;" width="134.3018" x="627" y="254.53"/><ellipse cx="658.4246" cy="270.53" fill="#2E5233" rx="11" ry="11" style="stroke:#E7E7E7;stroke-width:1;"/><path d="M661.3933,276.1706 Q660.8152,276.4675 660.1746,276.6081 Q659.5339,276.7644 658.8308,276.7644 Q656.3308,276.7644 655.0027,275.1238 Q653.6902,273.4675 653.6902,270.3425 Q653.6902,267.2175 655.0027,265.5613 Q656.3308,263.905 658.8308,263.905 Q659.5339,263.905 660.1746,264.0613 Q660.8308,264.2175 661.3933,264.5144 L661.3933,267.2331 Q660.7683,266.655 660.1746,266.3894 Q659.5808,266.1081 658.9558,266.1081 Q657.6121,266.1081 656.9246,267.1863 Q656.2371,268.2488 656.2371,270.3425 Q656.2371,272.4363 656.9246,273.5144 Q657.6121,274.5769 658.9558,274.5769 Q659.5808,274.5769 660.1746,274.3113 Q660.7683,274.03 661.3933,273.4519 L661.3933,276.1706 Z " fill="#FFFFFF"/><text fill="#FFFFFF" font-family="sans-serif" font-size="14" lengthAdjust="spacing" textLength="65.8027" x="676.0745" y="275.3767">PostForm</text><line style="stroke:#E7E7E7;stroke-width:0.5;" x1="628" x2="760.3018" y1="286.53" y2="286.53"/><line style="stroke:#E7E7E7;stroke-width:0.5;" x1="628" x2="760.3018" y1="294.53" y2="294.53"/><ellipse cx="638" cy="308.1784" fill="#84BE84" rx="3" ry="3" style="stroke:#038048;stroke-width:1;"/><text fill="#FFFFFF" font-family="sans-serif" font-size="14" lengthAdjust="spacing" textLength="108.3018" x="647" y="311.5251">handleSubmit()</text></g><!--class PostList--><g class="entity" data-entity="PostList" data-source-line="56" data-uid="ent0009" id="entity_PostList"><rect fill="#313139" height="48" rx="2.5" ry="2.5" style="stroke:#E7E7E7;stroke-width:0.5;" width="86.2637" x="506.02" y="262.68"/><ellipse cx="521.02" cy="278.68" fill="#2E5233" rx="11" ry="11" style="stroke:#E7E7E7;stroke-width:1;"/><path d="M523.9888,284.3206 Q523.4106,284.6175 522.77,284.7581 Q522.1294,284.9144 521.4263,284.9144 Q518.9263,284.9144 517.5981,283.2737 Q516.2856,281.6175 516.2856,278.4925 Q516.2856,275.3675 517.5981,273.7112 Q518.9263,272.055 521.4263,272.055 Q522.1294,272.055 522.77,272.2112 Q523.4263,272.3675 523.9888,272.6644 L523.9888,275.3831 Q523.3638,274.805 522.77,274.5394 Q522.1763,274.2581 521.5513,274.2581 Q520.2075,274.2581 519.52,275.3362 Q518.8325,276.3987 518.8325,278.4925 Q518.8325,280.5862 519.52,281.6644 Q520.2075,282.7269 521.5513,282.7269 Q522.1763,282.7269 522.77,282.4612 Q523.3638,282.18 523.9888,281.6019 L523.9888,284.3206 Z " fill="#FFFFFF"/><text fill="#FFFFFF" font-family="sans-serif" font-size="14" lengthAdjust="spacing" textLength="54.2637" x="535.02" y="283.5267">PostList</text><line style="stroke:#E7E7E7;stroke-width:0.5;" x1="507.02" x2="591.2837" y1="294.68" y2="294.68"/><line style="stroke:#E7E7E7;stroke-width:0.5;" x1="507.02" x2="591.2837" y1="302.68" y2="302.68"/></g><!--class PostItem--><g class="entity" data-entity="PostItem" data-source-line="57" data-uid="ent0010" id="entity_PostItem"><rect fill="#313139" height="48" rx="2.5" ry="2.5" style="stroke:#E7E7E7;stroke-width:0.5;" width="93.6602" x="296.32" y="262.68"/><ellipse cx="311.32" cy="278.68" fill="#2E5233" rx="11" ry="11" style="stroke:#E7E7E7;stroke-width:1;"/><path d="M314.2888,284.3206 Q313.7106,284.6175 313.07,284.7581 Q312.4294,284.9144 311.7263,284.9144 Q309.2263,284.9144 307.8981,283.2737 Q306.5856,281.6175 306.5856,278.4925 Q306.5856,275.3675 307.8981,273.7112 Q309.2263,272.055 311.7263,272.055 Q312.4294,272.055 313.07,272.2112 Q313.7263,272.3675 314.2888,272.6644 L314.2888,275.3831 Q313.6638,274.805 313.07,274.5394 Q312.4763,274.2581 311.8513,274.2581 Q310.5075,274.2581 309.82,275.3362 Q309.1325,276.3987 309.1325,278.4925 Q309.1325,280.5862 309.82,281.6644 Q310.5075,282.7269 311.8513,282.7269 Q312.4763,282.7269 313.07,282.4612 Q313.6638,282.18 314.2888,281.6019 L314.2888,284.3206 Z " fill="#FFFFFF"/><text fill="#FFFFFF" font-family="sans-serif" font-size="14" lengthAdjust="spacing" textLength="61.6602" x="325.32" y="283.5267">PostItem</text><line style="stroke:#E7E7E7;stroke-width:0.5;" x1="297.32" x2="388.9802" y1="294.68" y2="294.68"/><line style="stroke:#E7E7E7;stroke-width:0.5;" x1="297.32" x2="388.9802" y1="302.68" y2="302.68"/></g><!--class CategoryForm--><g class="entity" data-entity="CategoryForm" data-source-line="58" data-uid="ent0011" id="entity_CategoryForm"><rect fill="#313139" height="48" rx="2.5" ry="2.5" style="stroke:#E7E7E7;stroke-width:0.5;" width="131.9619" x="839.17" y="262.68"/><ellipse cx="854.17" cy="278.68" fill="#2E5233" rx="11" ry="11" style="stroke:#E7E7E7;stroke-width:1;"/><path d="M857.1388,284.3206 Q856.5606,284.6175 855.92,284.7581 Q855.2794,284.9144 854.5763,284.9144 Q852.0763,284.9144 850.7481,283.2737 Q849.4356,281.6175 849.4356,278.4925 Q849.4356,275.3675 850.7481,273.7112 Q852.0763,272.055 854.5763,272.055 Q855.2794,272.055 855.92,272.2112 Q856.5763,272.3675 857.1388,272.6644 L857.1388,275.3831 Q856.5138,274.805 855.92,274.5394 Q855.3263,274.2581 854.7013,274.2581 Q853.3575,274.2581 852.67,275.3362 Q851.9825,276.3987 851.9825,278.4925 Q851.9825,280.5862 852.67,281.6644 Q853.3575,282.7269 854.7013,282.7269 Q855.3263,282.7269 855.92,282.4612 Q856.5138,282.18 857.1388,281.6019 L857.1388,284.3206 Z " fill="#FFFFFF"/><text fill="#FFFFFF" font-family="sans-serif" font-size="14" lengthAdjust="spacing" textLength="99.9619" x="868.17" y="283.5267">CategoryForm</text><line style="stroke:#E7E7E7;stroke-width:0.5;" x1="840.17" x2="970.1319" y1="294.68" y2="294.68"/><line style="stroke:#E7E7E7;stroke-width:0.5;" x1="840.17" x2="970.1319" y1="302.68" y2="302.68"/></g><!--class CategoryManager--><g class="entity" data-entity="CategoryManager" data-source-line="59" data-uid="ent0012" id="entity_CategoryManager"><rect fill="#313139" height="48" rx="2.5" ry="2.5" style="stroke:#E7E7E7;stroke-width:0.5;" width="157.3164" x="1046.5" y="262.68"/><ellipse cx="1061.5" cy="278.68" fill="#2E5233" rx="11" ry="11" style="stroke:#E7E7E7;stroke-width:1;"/><path d="M1064.4688,284.3206 Q1063.8906,284.6175 1063.25,284.7581 Q1062.6094,284.9144 1061.9063,284.9144 Q1059.4063,284.9144 1058.0781,283.2737 Q1056.7656,281.6175 1056.7656,278.4925 Q1056.7656,275.3675 1058.0781,273.7112 Q1059.4063,272.055 1061.9063,272.055 Q1062.6094,272.055 1063.25,272.2112 Q1063.9063,272.3675 1064.4688,272.6644 L1064.4688,275.3831 Q1063.8438,274.805 1063.25,274.5394 Q1062.6563,274.2581 1062.0313,274.2581 Q1060.6875,274.2581 1060,275.3362 Q1059.3125,276.3987 1059.3125,278.4925 Q1059.3125,280.5862 1060,281.6644 Q1060.6875,282.7269 1062.0313,282.7269 Q1062.6563,282.7269 1063.25,282.4612 Q1063.8438,282.18 1064.4688,281.6019 L1064.4688,284.3206 Z " fill="#FFFFFF"/><text fill="#FFFFFF" font-family="sans-serif" font-size="14" lengthAdjust="spacing" textLength="125.3164" x="1075.5" y="283.5267">CategoryManager</text><line style="stroke:#E7E7E7;stroke-width:0.5;" x1="1047.5" x2="1202.8164" y1="294.68" y2="294.68"/><line style="stroke:#E7E7E7;stroke-width:0.5;" x1="1047.5" x2="1202.8164" y1="302.68" y2="302.68"/></g><!--class DatabasePage--><g class="entity" data-entity="DatabasePage" data-source-line="60" data-uid="ent0013" id="entity_DatabasePage"><rect fill="#313139" height="48" rx="2.5" ry="2.5" style="stroke:#E7E7E7;stroke-width:0.5;" width="133.3223" x="1238.49" y="262.68"/><ellipse cx="1253.49" cy="278.68" fill="#2E5233" rx="11" ry="11" style="stroke:#E7E7E7;stroke-width:1;"/><path d="M1256.4588,284.3206 Q1255.8806,284.6175 1255.24,284.7581 Q1254.5994,284.9144 1253.8963,284.9144 Q1251.3963,284.9144 1250.0681,283.2737 Q1248.7556,281.6175 1248.7556,278.4925 Q1248.7556,275.3675 1250.0681,273.7112 Q1251.3963,272.055 1253.8963,272.055 Q1254.5994,272.055 1255.24,272.2112 Q1255.8963,272.3675 1256.4588,272.6644 L1256.4588,275.3831 Q1255.8338,274.805 1255.24,274.5394 Q1254.6463,274.2581 1254.0213,274.2581 Q1252.6775,274.2581 1251.99,275.3362 Q1251.3025,276.3987 1251.3025,278.4925 Q1251.3025,280.5862 1251.99,281.6644 Q1252.6775,282.7269 1254.0213,282.7269 Q1254.6463,282.7269 1255.24,282.4612 Q1255.8338,282.18 1256.4588,281.6019 L1256.4588,284.3206 Z " fill="#FFFFFF"/><text fill="#FFFFFF" font-family="sans-serif" font-size="14" lengthAdjust="spacing" textLength="101.3223" x="1267.49" y="283.5267">DatabasePage</text><line style="stroke:#E7E7E7;stroke-width:0.5;" x1="1239.49" x2="1370.8123" y1="294.68" y2="294.68"/><line style="stroke:#E7E7E7;stroke-width:0.5;" x1="1239.49" x2="1370.8123" y1="302.68" y2="302.68"/></g><!--link Note to Category--><g class="link" data-entity-1="Note" data-entity-2="Category" data-source-line="62" data-uid="lnk14" id="link_Note_Category"><path codeLine="62" d="M373.28,566.47 C386.32,572.06 399.43,577.44 412.15,582.35 C509.75,619.98 621.25,655.43 711.47,682.29" fill="none" id="Note-Category" style="stroke:#E7E7E7;stroke-width:1;"/><polygon fill="#FFFFFF" points="549.8803,622.5364,542.2753,616.8254,540.3709,622.3862,549.8803,622.5364" style="stroke:#FFFFFF;stroke-width:1;"/><text fill="#FFFFFF" font-family="sans-serif" font-size="13" lengthAdjust="spacing" textLength="68.2627" x="554.15" y="625.4169">belongs to</text><text fill="#FFFFFF" font-family="sans-serif" font-size="13" lengthAdjust="spacing" textLength="8.271" x="378.8159" y="586.0366">1</text><text fill="#FFFFFF" font-family="sans-serif" font-size="13" lengthAdjust="spacing" textLength="6.5" x="697.4755" y="676.7567">*</text></g><!--link Image to Note--><g class="link" data-entity-1="Image" data-entity-2="Note" data-source-line="63" data-uid="lnk15" id="link_Image_Note"><path codeLine="63" d="M161.48,343.54 C175.38,371.97 192.35,406.65 206.78,436.17" fill="none" id="Image-Note" style="stroke:#E7E7E7;stroke-width:1;"/><polygon fill="#FFFFFF" points="190.3466,386.3281,189.013,376.9115,183.7328,379.4937,190.3466,386.3281" style="stroke:#FFFFFF;stroke-width:1;"/><text fill="#FFFFFF" font-family="sans-serif" font-size="13" lengthAdjust="spacing" textLength="74.9468" x="197.15" y="386.3369">attached to</text><text fill="#FFFFFF" font-family="sans-serif" font-size="13" lengthAdjust="spacing" textLength="6.5" x="158.4753" y="363.4596">*</text><text fill="#FFFFFF" font-family="sans-serif" font-size="13" lengthAdjust="spacing" textLength="8.271" x="194.9253" y="425.2989">1</text></g><!--link App to PostForm--><g class="link" data-entity-1="App" data-entity-2="PostForm" data-source-line="64" data-uid="lnk16" id="link_App_PostForm"><path codeLine="64" d="M819.03,169.31 C787.01,199.15 756.909,227.189 732.309,250.119" fill="none" id="App-to-PostForm" style="stroke:#E7E7E7;stroke-width:1;"/><polygon fill="#E7E7E7" points="727.92,254.21,737.2309,250.9994,731.5775,250.8008,731.7761,245.1474,727.92,254.21" style="stroke:#E7E7E7;stroke-width:1;"/></g><!--link App to PostList--><g class="link" data-entity-1="App" data-entity-2="PostList" data-source-line="65" data-uid="lnk17" id="link_App_PostList"><path codeLine="65" d="M803.76,128.3 C744.61,153.37 669.93,188.86 609.15,230.08 C595.52,239.33 586.1863,247.3911 575.3963,258.0611" fill="none" id="App-to-PostList" style="stroke:#E7E7E7;stroke-width:1;"/><polygon fill="#E7E7E7" points="571.13,262.28,580.342,258.7959,574.6852,258.7643,574.7169,253.1075,571.13,262.28" style="stroke:#E7E7E7;stroke-width:1;"/></g><!--link App to CategoryForm--><g class="link" data-entity-1="App" data-entity-2="CategoryForm" data-source-line="66" data-uid="lnk18" id="link_App_CategoryForm"><path codeLine="66" d="M905.15,169.31 C905.15,202.86 905.15,233.33 905.15,256.33" fill="none" id="App-to-CategoryForm" style="stroke:#E7E7E7;stroke-width:1;"/><polygon fill="#E7E7E7" points="905.15,262.33,909.15,253.33,905.15,257.33,901.15,253.33,905.15,262.33" style="stroke:#E7E7E7;stroke-width:1;"/></g><!--link App to CategoryManager--><g class="link" data-entity-1="App" data-entity-2="CategoryManager" data-source-line="67" data-uid="lnk19" id="link_App_CategoryManager"><path codeLine="67" d="M994.95,169.31 C1032.5,202.86 1068.8159,235.3322 1094.5559,258.3322" fill="none" id="App-to-CategoryManager" style="stroke:#E7E7E7;stroke-width:1;"/><polygon fill="#E7E7E7" points="1099.03,262.33,1094.9841,253.3505,1095.3016,258.9985,1089.6537,259.316,1099.03,262.33" style="stroke:#E7E7E7;stroke-width:1;"/></g><!--link App to DatabasePage--><g class="link" data-entity-1="App" data-entity-2="DatabasePage" data-source-line="68" data-uid="lnk20" id="link_App_DatabasePage"><path codeLine="68" d="M1006.47,129.24 C1069.49,155.47 1151.51,191.84 1221.15,230.08 C1238.63,239.68 1252.2537,248.3539 1267.4737,258.8039" fill="none" id="App-to-DatabasePage" style="stroke:#E7E7E7;stroke-width:1;"/><polygon fill="#E7E7E7" points="1272.42,262.2,1267.2646,253.8082,1268.2981,259.3699,1262.7364,260.4034,1272.42,262.2" style="stroke:#E7E7E7;stroke-width:1;"/></g><!--link PostForm to Note--><g class="link" data-entity-1="PostForm" data-entity-2="Note" data-source-line="69" data-uid="lnk21" id="link_PostForm_Note"><path codeLine="69" d="M650.33,319.23 C637.69,327.61 623.66,336.27 610.15,343.27 C526.31,386.68 499.08,383.41 412.15,420.27 C400.21,425.33 393.3536,428.2748 381.0136,433.7548" fill="none" id="PostForm-to-Note" style="stroke:#E7E7E7;stroke-width:1;stroke-dasharray:7,7;"/><polygon fill="#E7E7E7" points="375.53,436.19,385.3789,436.193,380.0997,434.1607,382.1319,428.8815,375.53,436.19" style="stroke:#E7E7E7;stroke-width:1;"/></g><!--link PostList to Note--><g class="link" data-entity-1="PostList" data-entity-2="Note" data-source-line="70" data-uid="lnk22" id="link_PostList_Note"><path codeLine="70" d="M514.98,311.04 C471.27,340.92 398.7829,390.4835 336.9029,432.7935" fill="none" id="PostList-to-Note" style="stroke:#E7E7E7;stroke-width:1;stroke-dasharray:7,7;"/><polygon fill="#E7E7E7" points="331.95,436.18,341.6371,434.4022,336.0774,433.3579,337.1217,427.7983,331.95,436.18" style="stroke:#E7E7E7;stroke-width:1;"/></g><!--link PostItem to Note--><g class="link" data-entity-1="PostItem" data-entity-2="Note" data-source-line="71" data-uid="lnk23" id="link_PostItem_Note"><path codeLine="71" d="M331.72,310.84 C316.94,340.76 293.2869,388.6703 272.3169,431.1303" fill="none" id="PostItem-to-Note" style="stroke:#E7E7E7;stroke-width:1;stroke-dasharray:7,7;"/><polygon fill="#E7E7E7" points="269.66,436.51,277.2318,430.2118,271.8741,432.0269,270.0589,426.6692,269.66,436.51" style="stroke:#E7E7E7;stroke-width:1;"/></g><!--link CategoryForm to Category--><g class="link" data-entity-1="CategoryForm" data-entity-2="Category" data-source-line="72" data-uid="lnk24" id="link_CategoryForm_Category"><path codeLine="72" d="M904.11,310.9 C901.21,375.07 893.2902,550.8161 888.6802,653.0661" fill="none" id="CategoryForm-to-Category" style="stroke:#E7E7E7;stroke-width:1;stroke-dasharray:7,7;"/><polygon fill="#E7E7E7" points="888.41,659.06,892.8113,650.2493,888.6352,654.0651,884.8194,649.889,888.41,659.06" style="stroke:#E7E7E7;stroke-width:1;"/></g><!--link CategoryManager to Category--><g class="link" data-entity-1="CategoryManager" data-entity-2="Category" data-source-line="73" data-uid="lnk25" id="link_CategoryManager_Category"><path codeLine="73" d="M1164.6,311.12 C1181.85,321.22 1202.39,333.03 1221.15,343.27 C1286.93,379.17 1332.1,356.32 1371.15,420.27 C1408.7,481.75 1413.98,524.43 1371.15,582.35 C1333.11,633.79 1188.1233,673.4934 1064.4433,699.3234" fill="none" id="CategoryManager-to-Category" style="stroke:#E7E7E7;stroke-width:1;stroke-dasharray:7,7;"/><polygon fill="#E7E7E7" points="1058.57,700.55,1068.1977,702.6256,1063.4644,699.5278,1066.5622,694.7946,1058.57,700.55" style="stroke:#E7E7E7;stroke-width:1;"/></g><!--link PostForm to PostService--><g class="link" data-entity-1="PostForm" data-entity-2="PostService" data-source-line="74" data-uid="lnk26" id="link_PostForm_PostService"><path codeLine="74" d="M684.86,319.05 C676.99,345.62 667.0546,379.1472 656.6246,414.3472" fill="none" id="PostForm-to-PostService" style="stroke:#E7E7E7;stroke-width:1;stroke-dasharray:7,7;"/><polygon fill="#E7E7E7" points="654.92,420.1,661.3121,412.6072,656.3405,415.306,653.6417,410.3345,654.92,420.1" style="stroke:#E7E7E7;stroke-width:1;"/></g><!--link PostList to PostService--><g class="link" data-entity-1="PostList" data-entity-2="PostService" data-source-line="75" data-uid="lnk27" id="link_PostList_PostService"><path codeLine="75" d="M558.08,310.84 C568.17,336.99 582.9808,375.402 598.0308,414.422" fill="none" id="PostList-to-PostService" style="stroke:#E7E7E7;stroke-width:1;stroke-dasharray:7,7;"/><polygon fill="#E7E7E7" points="600.19,420.02,600.6833,410.1835,598.3907,415.355,593.2192,413.0624,600.19,420.02" style="stroke:#E7E7E7;stroke-width:1;"/></g><!--link CategoryForm to CategoryService--><g class="link" data-entity-1="CategoryForm" data-entity-2="CategoryService" data-source-line="76" data-uid="lnk28" id="link_CategoryForm_CategoryService"><path codeLine="76" d="M931.4,310.84 C967.45,342.64 1028.9208,396.8805 1078.2708,440.4205" fill="none" id="CategoryForm-to-CategoryService" style="stroke:#E7E7E7;stroke-width:1;stroke-dasharray:7,7;"/><polygon fill="#E7E7E7" points="1082.77,444.39,1078.6675,435.4362,1079.0207,441.0821,1073.3748,441.4352,1082.77,444.39" style="stroke:#E7E7E7;stroke-width:1;"/></g><!--link CategoryManager to CategoryService--><g class="link" data-entity-1="CategoryManager" data-entity-2="CategoryService" data-source-line="77" data-uid="lnk29" id="link_CategoryManager_CategoryService"><path codeLine="77" d="M1127.44,310.84 C1130.59,342.7 1135.7606,395.079 1140.0606,438.639" fill="none" id="CategoryManager-to-CategoryService" style="stroke:#E7E7E7;stroke-width:1;stroke-dasharray:7,7;"/><polygon fill="#E7E7E7" points="1140.65,444.61,1143.7465,435.2606,1140.1588,439.6342,1135.7852,436.0465,1140.65,444.61" style="stroke:#E7E7E7;stroke-width:1;"/></g><!--SRC=[dLJ1Yjim4BtxAqHEJfiiz6eMGtQt2u6s1CAUIW-ADUi8PCj8auKbvDyhoR8iATcbz1AYDszctZoDrGYgDVab4SYv8EGhPnNHg7ZVsXDo5103ZUmHUamWYj1AzRvb6T4SJWrALNAs8gxIYlXyyoTaBOjBKJHEngC7RqdfQPSf4LB503UrupC3tIW-84_XN9YjQtMPQYjYQwn8b1c9stQqlMdI83McmtDBVL7YixvZbcdfkL6ddGdjGRtnnlTh0IscosL5TafsNCEzlRBVVseRfepPSDaRg79tcV4S2nZ7Vw0n483WYFEO4V5DSbPxKSuI_V3ksAaDKOPZpLBTiNHZLwEfETSnJuEGr9DVkTt2P_CRKS-vovVwUfDo6ptE8V5oOiyY9wISzhGA9M_a1N__8stqEoH-udaORZCCuq2lWCrn8qIvjASZxPc0ZL-62Fe-tNo4FStNd37tI5K2JjeUpT5SHXBf6n0sgSpMzrcgRjGuClUdGtVD-i4ralCbGhO8tOnCdSTgEVgJzcO1r1nueaWFLCFEVQYcatlM5jyMPBqcYo-B-Nsfo064x5jDK9Aw63zjox14mtU95Q68j3a26rdMzlMw3lCbW1qb0B7kAz3B3dYikWZUtTtLJaKHV4eGvrD04fyiEW55xbKIJ9f5ZqxQCmvys2WdtEhdENy1]--></g></svg>