<svg xmlns="http://www.w3.org/2000/svg" xmlns:xlink="http://www.w3.org/1999/xlink" contentStyleType="text/css" data-diagram-type="DESCRIPTION" height="916px" preserveAspectRatio="none" style="width:1126px;height:916px;background:#1B1B1B;" version="1.1" viewBox="0 0 1126 916" width="1126px" zoomAndPan="magnify"><defs/><g><rect fill="#1B1B1B" height="916" style="stroke:none;stroke-width:1;" width="1126" x="0" y="0"/><!--cluster Frontend (React)--><g class="cluster" data-entity="Frontend .React." data-source-line="3" data-uid="ent0003" id="cluster_Frontend .React."><path d="M8.5,128.79 L144.1133,128.79 A3.75,3.75 0 0 1 146.6133,131.29 L153.6133,151.0869 L822.5,151.0869 A2.5,2.5 0 0 1 825,153.5869 L825,454.18 A2.5,2.5 0 0 1 822.5,456.68 L8.5,456.68 A2.5,2.5 0 0 1 6,454.18 L6,131.29 A2.5,2.5 0 0 1 8.5,128.79" fill="none" style="stroke:#FFFFFF;stroke-width:1.5;"/><line style="stroke:#FFFFFF;stroke-width:1.5;" x1="6" x2="153.6133" y1="151.0869" y2="151.0869"/><text fill="#FFFFFF" font-family="sans-serif" font-size="14" font-weight="bold" lengthAdjust="spacing" textLength="134.6133" x="10" y="143.7851">Frontend (React)</text></g><!--cluster Backend (Express)--><g class="cluster" data-entity="Backend .Express." data-source-line="16" data-uid="ent0014" id="cluster_Backend .Express."><path d="M26.5,489.68 L174.0625,489.68 A3.75,3.75 0 0 1 176.5625,492.18 L183.5625,511.9769 L987.5,511.9769 A2.5,2.5 0 0 1 990,514.4769 L990,803.07 A2.5,2.5 0 0 1 987.5,805.57 L26.5,805.57 A2.5,2.5 0 0 1 24,803.07 L24,492.18 A2.5,2.5 0 0 1 26.5,489.68" fill="none" style="stroke:#FFFFFF;stroke-width:1.5;"/><line style="stroke:#FFFFFF;stroke-width:1.5;" x1="24" x2="183.5625" y1="511.9769" y2="511.9769"/><text fill="#FFFFFF" font-family="sans-serif" font-size="14" font-weight="bold" lengthAdjust="spacing" textLength="146.5625" x="28" y="504.6751">Backend (Express)</text></g><!--entity App--><g class="entity" data-entity="App" data-source-line="4" data-uid="ent0004" id="entity_App"><rect fill="#313139" height="46.2969" rx="2.5" ry="2.5" style="stroke:#E7E7E7;stroke-width:0.5;" width="67.3506" x="355.32" y="163.79"/><rect fill="#313139" height="10" style="stroke:#E7E7E7;stroke-width:0.5;" width="15" x="402.6706" y="168.79"/><rect fill="#313139" height="2" style="stroke:#E7E7E7;stroke-width:0.5;" width="4" x="400.6706" y="170.79"/><rect fill="#313139" height="2" style="stroke:#E7E7E7;stroke-width:0.5;" width="4" x="400.6706" y="174.79"/><text fill="#FFFFFF" font-family="sans-serif" font-size="14" lengthAdjust="spacing" textLength="27.3506" x="370.32" y="196.7851">App</text></g><!--entity PostForm--><g class="entity" data-entity="PostForm" data-source-line="5" data-uid="ent0005" id="entity_PostForm"><rect fill="#313139" height="46.2969" rx="2.5" ry="2.5" style="stroke:#E7E7E7;stroke-width:0.5;" width="105.8027" x="22.1" y="271.09"/><rect fill="#313139" height="10" style="stroke:#E7E7E7;stroke-width:0.5;" width="15" x="107.9027" y="276.09"/><rect fill="#313139" height="2" style="stroke:#E7E7E7;stroke-width:0.5;" width="4" x="105.9027" y="278.09"/><rect fill="#313139" height="2" style="stroke:#E7E7E7;stroke-width:0.5;" width="4" x="105.9027" y="282.09"/><text fill="#FFFFFF" font-family="sans-serif" font-size="14" lengthAdjust="spacing" textLength="65.8027" x="37.1" y="304.0851">PostForm</text></g><!--entity PostList--><g class="entity" data-entity="PostList" data-source-line="6" data-uid="ent0006" id="entity_PostList"><rect fill="#313139" height="46.2969" rx="2.5" ry="2.5" style="stroke:#E7E7E7;stroke-width:0.5;" width="94.2637" x="162.87" y="271.09"/><rect fill="#313139" height="10" style="stroke:#E7E7E7;stroke-width:0.5;" width="15" x="237.1337" y="276.09"/><rect fill="#313139" height="2" style="stroke:#E7E7E7;stroke-width:0.5;" width="4" x="235.1337" y="278.09"/><rect fill="#313139" height="2" style="stroke:#E7E7E7;stroke-width:0.5;" width="4" x="235.1337" y="282.09"/><text fill="#FFFFFF" font-family="sans-serif" font-size="14" lengthAdjust="spacing" textLength="54.2637" x="177.87" y="304.0851">PostList</text></g><!--entity CategoryForm--><g class="entity" data-entity="CategoryForm" data-source-line="7" data-uid="ent0007" id="entity_CategoryForm"><rect fill="#313139" height="46.2969" rx="2.5" ry="2.5" style="stroke:#E7E7E7;stroke-width:0.5;" width="139.9619" x="292.02" y="271.09"/><rect fill="#313139" height="10" style="stroke:#E7E7E7;stroke-width:0.5;" width="15" x="411.9819" y="276.09"/><rect fill="#313139" height="2" style="stroke:#E7E7E7;stroke-width:0.5;" width="4" x="409.9819" y="278.09"/><rect fill="#313139" height="2" style="stroke:#E7E7E7;stroke-width:0.5;" width="4" x="409.9819" y="282.09"/><text fill="#FFFFFF" font-family="sans-serif" font-size="14" lengthAdjust="spacing" textLength="99.9619" x="307.02" y="304.0851">CategoryForm</text></g><!--entity CategoryManager--><g class="entity" data-entity="CategoryManager" data-source-line="8" data-uid="ent0008" id="entity_CategoryManager"><rect fill="#313139" height="46.2969" rx="2.5" ry="2.5" style="stroke:#E7E7E7;stroke-width:0.5;" width="165.3164" x="467.34" y="271.09"/><rect fill="#313139" height="10" style="stroke:#E7E7E7;stroke-width:0.5;" width="15" x="612.6564" y="276.09"/><rect fill="#313139" height="2" style="stroke:#E7E7E7;stroke-width:0.5;" width="4" x="610.6564" y="278.09"/><rect fill="#313139" height="2" style="stroke:#E7E7E7;stroke-width:0.5;" width="4" x="610.6564" y="282.09"/><text fill="#FFFFFF" font-family="sans-serif" font-size="14" lengthAdjust="spacing" textLength="125.3164" x="482.34" y="304.0851">CategoryManager</text></g><!--entity DatabasePage--><g class="entity" data-entity="DatabasePage" data-source-line="9" data-uid="ent0009" id="entity_DatabasePage"><rect fill="#313139" height="46.2969" rx="2.5" ry="2.5" style="stroke:#E7E7E7;stroke-width:0.5;" width="141.3223" x="667.34" y="271.09"/><rect fill="#313139" height="10" style="stroke:#E7E7E7;stroke-width:0.5;" width="15" x="788.6623" y="276.09"/><rect fill="#313139" height="2" style="stroke:#E7E7E7;stroke-width:0.5;" width="4" x="786.6623" y="278.09"/><rect fill="#313139" height="2" style="stroke:#E7E7E7;stroke-width:0.5;" width="4" x="786.6623" y="282.09"/><text fill="#FFFFFF" font-family="sans-serif" font-size="14" lengthAdjust="spacing" textLength="101.3223" x="682.34" y="304.0851">DatabasePage</text></g><!--entity PostService--><g class="entity" data-entity="PostService" data-source-line="10" data-uid="ent0010" id="entity_PostService"><rect fill="#313139" height="46.2969" rx="2.5" ry="2.5" style="stroke:#E7E7E7;stroke-width:0.5;" width="121.5322" x="149.23" y="394.39"/><rect fill="#313139" height="10" style="stroke:#E7E7E7;stroke-width:0.5;" width="15" x="250.7622" y="399.39"/><rect fill="#313139" height="2" style="stroke:#E7E7E7;stroke-width:0.5;" width="4" x="248.7622" y="401.39"/><rect fill="#313139" height="2" style="stroke:#E7E7E7;stroke-width:0.5;" width="4" x="248.7622" y="405.39"/><text fill="#FFFFFF" font-family="sans-serif" font-size="14" lengthAdjust="spacing" textLength="81.5322" x="164.23" y="427.3851">PostService</text></g><!--entity CategoryService--><g class="entity" data-entity="CategoryService" data-source-line="11" data-uid="ent0011" id="entity_CategoryService"><rect fill="#313139" height="46.2969" rx="2.5" ry="2.5" style="stroke:#E7E7E7;stroke-width:0.5;" width="155.6914" x="421.15" y="394.39"/><rect fill="#313139" height="10" style="stroke:#E7E7E7;stroke-width:0.5;" width="15" x="556.8414" y="399.39"/><rect fill="#313139" height="2" style="stroke:#E7E7E7;stroke-width:0.5;" width="4" x="554.8414" y="401.39"/><rect fill="#313139" height="2" style="stroke:#E7E7E7;stroke-width:0.5;" width="4" x="554.8414" y="405.39"/><text fill="#FFFFFF" font-family="sans-serif" font-size="14" lengthAdjust="spacing" textLength="115.6914" x="436.15" y="427.3851">CategoryService</text></g><!--entity Note--><g class="entity" data-entity="Note" data-source-line="12" data-uid="ent0012" id="entity_Note"><rect fill="#313139" height="46.2969" rx="2.5" ry="2.5" style="stroke:#E7E7E7;stroke-width:0.5;" width="73.1406" x="536.43" y="163.79"/><rect fill="#313139" height="10" style="stroke:#E7E7E7;stroke-width:0.5;" width="15" x="589.5706" y="168.79"/><rect fill="#313139" height="2" style="stroke:#E7E7E7;stroke-width:0.5;" width="4" x="587.5706" y="170.79"/><rect fill="#313139" height="2" style="stroke:#E7E7E7;stroke-width:0.5;" width="4" x="587.5706" y="174.79"/><text fill="#FFFFFF" font-family="sans-serif" font-size="14" lengthAdjust="spacing" textLength="33.1406" x="551.43" y="196.7851">Note</text></g><!--entity Category--><g class="entity" data-entity="Category" data-source-line="13" data-uid="ent0013" id="entity_Category"><rect fill="#313139" height="46.2969" rx="2.5" ry="2.5" style="stroke:#E7E7E7;stroke-width:0.5;" width="103.9502" x="685.02" y="163.79"/><rect fill="#313139" height="10" style="stroke:#E7E7E7;stroke-width:0.5;" width="15" x="768.9702" y="168.79"/><rect fill="#313139" height="2" style="stroke:#E7E7E7;stroke-width:0.5;" width="4" x="766.9702" y="170.79"/><rect fill="#313139" height="2" style="stroke:#E7E7E7;stroke-width:0.5;" width="4" x="766.9702" y="174.79"/><text fill="#FFFFFF" font-family="sans-serif" font-size="14" lengthAdjust="spacing" textLength="63.9502" x="700.02" y="196.7851">Category</text></g><!--entity ExpressApp--><g class="entity" data-entity="ExpressApp" data-source-line="17" data-uid="ent0015" id="entity_ExpressApp"><rect fill="#313139" height="46.2969" rx="2.5" ry="2.5" style="stroke:#E7E7E7;stroke-width:0.5;" width="122.3252" x="437.84" y="524.68"/><rect fill="#313139" height="10" style="stroke:#E7E7E7;stroke-width:0.5;" width="15" x="540.1652" y="529.68"/><rect fill="#313139" height="2" style="stroke:#E7E7E7;stroke-width:0.5;" width="4" x="538.1652" y="531.68"/><rect fill="#313139" height="2" style="stroke:#E7E7E7;stroke-width:0.5;" width="4" x="538.1652" y="535.68"/><text fill="#FFFFFF" font-family="sans-serif" font-size="14" lengthAdjust="spacing" textLength="82.3252" x="452.84" y="557.6751">ExpressApp</text></g><!--entity CategoryController--><g class="entity" data-entity="CategoryController" data-source-line="18" data-uid="ent0016" id="entity_CategoryController"><rect fill="#313139" height="46.2969" rx="2.5" ry="2.5" style="stroke:#E7E7E7;stroke-width:0.5;" width="173.123" x="40.44" y="631.98"/><rect fill="#313139" height="10" style="stroke:#E7E7E7;stroke-width:0.5;" width="15" x="193.563" y="636.98"/><rect fill="#313139" height="2" style="stroke:#E7E7E7;stroke-width:0.5;" width="4" x="191.563" y="638.98"/><rect fill="#313139" height="2" style="stroke:#E7E7E7;stroke-width:0.5;" width="4" x="191.563" y="642.98"/><text fill="#FFFFFF" font-family="sans-serif" font-size="14" lengthAdjust="spacing" textLength="133.123" x="55.44" y="664.9751">CategoryController</text></g><!--entity PostController--><g class="entity" data-entity="PostController" data-source-line="19" data-uid="ent0017" id="entity_PostController"><rect fill="#313139" height="46.2969" rx="2.5" ry="2.5" style="stroke:#E7E7E7;stroke-width:0.5;" width="138.9639" x="248.52" y="631.98"/><rect fill="#313139" height="10" style="stroke:#E7E7E7;stroke-width:0.5;" width="15" x="367.4839" y="636.98"/><rect fill="#313139" height="2" style="stroke:#E7E7E7;stroke-width:0.5;" width="4" x="365.4839" y="638.98"/><rect fill="#313139" height="2" style="stroke:#E7E7E7;stroke-width:0.5;" width="4" x="365.4839" y="642.98"/><text fill="#FFFFFF" font-family="sans-serif" font-size="14" lengthAdjust="spacing" textLength="98.9639" x="263.52" y="664.9751">PostController</text></g><!--entity ImageController--><g class="entity" data-entity="ImageController" data-source-line="20" data-uid="ent0018" id="entity_ImageController"><rect fill="#313139" height="46.2969" rx="2.5" ry="2.5" style="stroke:#E7E7E7;stroke-width:0.5;" width="153.0186" x="422.49" y="631.98"/><rect fill="#313139" height="10" style="stroke:#E7E7E7;stroke-width:0.5;" width="15" x="555.5086" y="636.98"/><rect fill="#313139" height="2" style="stroke:#E7E7E7;stroke-width:0.5;" width="4" x="553.5086" y="638.98"/><rect fill="#313139" height="2" style="stroke:#E7E7E7;stroke-width:0.5;" width="4" x="553.5086" y="642.98"/><text fill="#FFFFFF" font-family="sans-serif" font-size="14" lengthAdjust="spacing" textLength="113.0186" x="437.49" y="664.9751">ImageController</text></g><!--entity UploadController--><g class="entity" data-entity="UploadController" data-source-line="21" data-uid="ent0019" id="entity_UploadController"><rect fill="#313139" height="46.2969" rx="2.5" ry="2.5" style="stroke:#E7E7E7;stroke-width:0.5;" width="158.2275" x="610.89" y="631.98"/><rect fill="#313139" height="10" style="stroke:#E7E7E7;stroke-width:0.5;" width="15" x="749.1175" y="636.98"/><rect fill="#313139" height="2" style="stroke:#E7E7E7;stroke-width:0.5;" width="4" x="747.1175" y="638.98"/><rect fill="#313139" height="2" style="stroke:#E7E7E7;stroke-width:0.5;" width="4" x="747.1175" y="642.98"/><text fill="#FFFFFF" font-family="sans-serif" font-size="14" lengthAdjust="spacing" textLength="118.2275" x="625.89" y="664.9751">UploadController</text></g><!--entity SwaggerController--><g class="entity" data-entity="SwaggerController" data-source-line="22" data-uid="ent0020" id="entity_SwaggerController"><rect fill="#313139" height="46.2969" rx="2.5" ry="2.5" style="stroke:#E7E7E7;stroke-width:0.5;" width="170.2314" x="803.88" y="631.98"/><rect fill="#313139" height="10" style="stroke:#E7E7E7;stroke-width:0.5;" width="15" x="954.1114" y="636.98"/><rect fill="#313139" height="2" style="stroke:#E7E7E7;stroke-width:0.5;" width="4" x="952.1114" y="638.98"/><rect fill="#313139" height="2" style="stroke:#E7E7E7;stroke-width:0.5;" width="4" x="952.1114" y="642.98"/><text fill="#FFFFFF" font-family="sans-serif" font-size="14" lengthAdjust="spacing" textLength="130.2314" x="818.88" y="664.9751">SwaggerController</text></g><!--entity DatabaseService--><g class="entity" data-entity="DatabaseService" data-source-line="23" data-uid="ent0021" id="entity_DatabaseService"><rect fill="#313139" height="46.2969" rx="2.5" ry="2.5" style="stroke:#E7E7E7;stroke-width:0.5;" width="158.542" x="238.73" y="743.28"/><rect fill="#313139" height="10" style="stroke:#E7E7E7;stroke-width:0.5;" width="15" x="377.272" y="748.28"/><rect fill="#313139" height="2" style="stroke:#E7E7E7;stroke-width:0.5;" width="4" x="375.272" y="750.28"/><rect fill="#313139" height="2" style="stroke:#E7E7E7;stroke-width:0.5;" width="4" x="375.272" y="754.28"/><text fill="#FFFFFF" font-family="sans-serif" font-size="14" lengthAdjust="spacing" textLength="118.542" x="253.73" y="776.2751">DatabaseService</text></g><!--entity User--><g class="entity" data-entity="User" data-source-line="1" data-uid="ent0002" id="entity_User"><ellipse cx="388.9951" cy="14" fill="#313139" rx="8" ry="8" style="stroke:#E7E7E7;stroke-width:0.5;"/><path d="M388.9951,22 L388.9951,49 M375.9951,30 L401.9951,30 M388.9951,49 L375.9951,64 M388.9951,49 L401.9951,64" fill="none" style="stroke:#E7E7E7;stroke-width:0.5;"/><text fill="#FFFFFF" font-family="sans-serif" font-size="14" lengthAdjust="spacing" textLength="31.9102" x="373.04" y="78.4951">User</text></g><!--entity DB--><g class="entity" data-entity="DB" data-source-line="26" data-uid="ent0022" id="entity_DB"><path d="M272.73,864.57 C272.73,854.57 317.9966,854.57 317.9966,854.57 C317.9966,854.57 363.2632,854.57 363.2632,864.57 L363.2632,889.8669 C363.2632,899.8669 317.9966,899.8669 317.9966,899.8669 C317.9966,899.8669 272.73,899.8669 272.73,889.8669 L272.73,864.57" fill="#313139" style="stroke:#E7E7E7;stroke-width:0.5;"/><path d="M272.73,864.57 C272.73,874.57 317.9966,874.57 317.9966,874.57 C317.9966,874.57 363.2632,874.57 363.2632,864.57" fill="none" style="stroke:#E7E7E7;stroke-width:0.5;"/><text fill="#FFFFFF" font-family="sans-serif" font-size="14" lengthAdjust="spacing" textLength="70.5332" x="282.73" y="891.5651">SQLite DB</text></g><!--entity Storage--><g class="entity" data-entity="Storage" data-source-line="27" data-uid="ent0023" id="entity_Storage"><path d="M1008.66,739.28 L1049.66,739.28 A3.75,3.75 0 0 1 1052.16,741.78 L1059.16,760.28 L1117.3319,760.28 A2.5,2.5 0 0 1 1119.8319,762.78 L1119.8319,791.0769 A2.5,2.5 0 0 1 1117.3319,793.5769 L1008.66,793.5769 A2.5,2.5 0 0 1 1006.16,791.0769 L1006.16,741.78 A2.5,2.5 0 0 1 1008.66,739.28" fill="#313139" style="stroke:#E7E7E7;stroke-width:0.5;"/><line style="stroke:#E7E7E7;stroke-width:0.5;" x1="1006.16" x2="1059.16" y1="760.28" y2="760.28"/><text fill="#FFFFFF" font-family="sans-serif" font-size="14" lengthAdjust="spacing" textLength="83.6719" x="1016.16" y="780.2751">File Storage</text></g><!--link User to App--><g class="link" data-entity-1="User" data-entity-2="App" data-source-line="29" data-uid="lnk24" id="link_User_App"><path d="M389,82.14 C389,107.97 389,135.46 389,157.31" fill="none" id="User-to-App" style="stroke:#E7E7E7;stroke-width:1;"/><polygon fill="#E7E7E7" points="389,163.31,393,154.31,389,158.31,385,154.31,389,163.31" style="stroke:#E7E7E7;stroke-width:1;"/></g><!--link App to PostForm--><g class="link" data-entity-1="App" data-entity-2="PostForm" data-source-line="30" data-uid="lnk25" id="link_App_PostForm"><path d="M355.1,199.31 C300.63,217.58 198.8587,251.7024 134.0287,273.4424" fill="none" id="App-to-PostForm" style="stroke:#E7E7E7;stroke-width:1;"/><polygon fill="#E7E7E7" points="128.34,275.35,138.1448,276.281,133.0806,273.7603,135.6012,268.6961,128.34,275.35" style="stroke:#E7E7E7;stroke-width:1;"/></g><!--link App to PostList--><g class="link" data-entity-1="App" data-entity-2="PostList" data-source-line="31" data-uid="lnk26" id="link_App_PostList"><path d="M354.91,207.99 C324.48,225.89 285.1314,249.0376 253.4814,267.6576" fill="none" id="App-to-PostList" style="stroke:#E7E7E7;stroke-width:1;"/><polygon fill="#E7E7E7" points="248.31,270.7,258.0954,269.584,252.6195,268.1647,254.0389,262.6888,248.31,270.7" style="stroke:#E7E7E7;stroke-width:1;"/></g><!--link App to CategoryForm--><g class="link" data-entity-1="App" data-entity-2="CategoryForm" data-source-line="32" data-uid="lnk27" id="link_App_CategoryForm"><path d="M383.21,210.53 C378.65,228.3 373.8321,247.1185 369.2721,264.8785" fill="none" id="App-to-CategoryForm" style="stroke:#E7E7E7;stroke-width:1;"/><polygon fill="#E7E7E7" points="367.78,270.69,373.8925,262.9675,369.0235,265.8471,366.1439,260.978,367.78,270.69" style="stroke:#E7E7E7;stroke-width:1;"/></g><!--link App to CategoryManager--><g class="link" data-entity-1="App" data-entity-2="CategoryManager" data-source-line="33" data-uid="lnk28" id="link_App_CategoryManager"><path d="M423.14,210.27 C450.37,228.08 483.3187,249.6257 510.6087,267.4757" fill="none" id="App-to-CategoryManager" style="stroke:#E7E7E7;stroke-width:1;"/><polygon fill="#E7E7E7" points="515.63,270.76,510.2877,262.486,511.4456,268.0231,505.9085,269.181,515.63,270.76" style="stroke:#E7E7E7;stroke-width:1;"/></g><!--link App to DatabasePage--><g class="link" data-entity-1="App" data-entity-2="DatabasePage" data-source-line="34" data-uid="lnk29" id="link_App_DatabasePage"><path d="M423.1,198.23 C479.36,215.2 587.0257,247.687 661.2757,270.087" fill="none" id="App-to-DatabasePage" style="stroke:#E7E7E7;stroke-width:1;"/><polygon fill="#E7E7E7" points="667.02,271.82,659.5589,265.391,662.2331,270.3759,657.2483,273.0501,667.02,271.82" style="stroke:#E7E7E7;stroke-width:1;"/></g><!--link PostForm to PostService--><g class="link" data-entity-1="PostForm" data-entity-2="PostService" data-source-line="35" data-uid="lnk30" id="link_PostForm_PostService"><path d="M100.08,317.77 C124.32,339.55 156.3966,368.3703 180.5966,390.1103" fill="none" id="PostForm-to-PostService" style="stroke:#E7E7E7;stroke-width:1;stroke-dasharray:7,7;"/><polygon fill="#E7E7E7" points="185.06,394.12,181.038,385.1298,181.3405,390.7786,175.6917,391.0811,185.06,394.12" style="stroke:#E7E7E7;stroke-width:1;"/></g><!--link PostList to PostService--><g class="link" data-entity-1="PostList" data-entity-2="PostService" data-source-line="36" data-uid="lnk31" id="link_PostList_PostService"><path d="M210,317.77 C210,339.55 210,366.38 210,388.12" fill="none" id="PostList-to-PostService" style="stroke:#E7E7E7;stroke-width:1;stroke-dasharray:7,7;"/><polygon fill="#E7E7E7" points="210,394.12,214,385.12,210,389.12,206,385.12,210,394.12" style="stroke:#E7E7E7;stroke-width:1;"/></g><!--link CategoryForm to CategoryService--><g class="link" data-entity-1="CategoryForm" data-entity-2="CategoryService" data-source-line="37" data-uid="lnk32" id="link_CategoryForm_CategoryService"><path d="M387.45,317.77 C412.05,339.55 444.6373,368.4031 469.1973,390.1431" fill="none" id="CategoryForm-to-CategoryService" style="stroke:#E7E7E7;stroke-width:1;stroke-dasharray:7,7;"/><polygon fill="#E7E7E7" points="473.69,394.12,469.6022,385.1596,469.9461,390.8059,464.2997,391.1499,473.69,394.12" style="stroke:#E7E7E7;stroke-width:1;"/></g><!--link CategoryManager to CategoryService--><g class="link" data-entity-1="CategoryManager" data-entity-2="CategoryService" data-source-line="38" data-uid="lnk33" id="link_CategoryManager_CategoryService"><path d="M540.53,317.77 C531.37,339.55 519.8975,366.8499 510.7475,388.5899" fill="none" id="CategoryManager-to-CategoryService" style="stroke:#E7E7E7;stroke-width:1;stroke-dasharray:7,7;"/><polygon fill="#E7E7E7" points="508.42,394.12,515.5981,387.3765,510.3596,389.5115,508.2246,384.2731,508.42,394.12" style="stroke:#E7E7E7;stroke-width:1;"/></g><!--link PostService to ExpressApp--><g class="link" data-entity-1="PostService" data-entity-2="ExpressApp" data-source-line="39" data-uid="lnk34" id="link_PostService_ExpressApp"><path d="M261,441.18 C313.67,464.56 389.886,498.3958 442.536,521.7658" fill="none" id="PostService-to-ExpressApp" style="stroke:#E7E7E7;stroke-width:1;stroke-dasharray:7,7;"/><polygon fill="#E7E7E7" points="448.02,524.2,441.4168,516.8926,443.45,522.1715,438.1711,524.2047,448.02,524.2" style="stroke:#E7E7E7;stroke-width:1;"/></g><!--link CategoryService to ExpressApp--><g class="link" data-entity-1="CategoryService" data-entity-2="ExpressApp" data-source-line="40" data-uid="lnk35" id="link_CategoryService_ExpressApp"><path d="M499,441.18 C499,464.63 499,495.05 499,518.42" fill="none" id="CategoryService-to-ExpressApp" style="stroke:#E7E7E7;stroke-width:1;stroke-dasharray:7,7;"/><polygon fill="#E7E7E7" points="499,524.42,503,515.42,499,519.42,495,515.42,499,524.42" style="stroke:#E7E7E7;stroke-width:1;"/></g><!--link App to ExpressApp--><g class="link" data-entity-1="App" data-entity-2="ExpressApp" data-source-line="42" data-uid="lnk36" id="link_App_ExpressApp"><path d="M423.07,193.83 C524.76,211.48 819.48,263.22 826,271.09 C918.69,383.07 684.087,483.0203 565.867,524.8103" fill="none" id="App-to-ExpressApp" style="stroke:#E7E7E7;stroke-width:1;"/><polygon fill="#E7E7E7" points="560.21,526.81,570.0286,527.5818,564.9241,525.1436,567.3623,520.0391,560.21,526.81" style="stroke:#E7E7E7;stroke-width:1;"/><text fill="#FFFFFF" font-family="sans-serif" font-size="13" lengthAdjust="spacing" textLength="105.9106" x="842" y="360.4569">HTTP (REST API)</text></g><!--link ExpressApp to CategoryController--><g class="link" data-entity-1="ExpressApp" data-entity-2="CategoryController" data-source-line="43" data-uid="lnk37" id="link_ExpressApp_CategoryController"><path d="M437.57,566.22 C374.42,584.09 281.5931,610.3655 212.4731,629.9355" fill="none" id="ExpressApp-to-CategoryController" style="stroke:#E7E7E7;stroke-width:1;"/><polygon fill="#E7E7E7" points="206.7,631.57,216.4493,632.9669,211.5109,630.2079,214.2699,625.2695,206.7,631.57" style="stroke:#E7E7E7;stroke-width:1;"/></g><!--link ExpressApp to PostController--><g class="link" data-entity-1="ExpressApp" data-entity-2="PostController" data-source-line="44" data-uid="lnk38" id="link_ExpressApp_PostController"><path d="M460.17,571.42 C429.63,589.19 392.4763,610.803 361.9463,628.563" fill="none" id="ExpressApp-to-PostController" style="stroke:#E7E7E7;stroke-width:1;"/><polygon fill="#E7E7E7" points="356.76,631.58,366.5508,630.512,361.0819,629.0658,362.5281,623.597,356.76,631.58" style="stroke:#E7E7E7;stroke-width:1;"/></g><!--link ExpressApp to ImageController--><g class="link" data-entity-1="ExpressApp" data-entity-2="ImageController" data-source-line="45" data-uid="lnk39" id="link_ExpressApp_ImageController"><path d="M499,571.42 C499,589.19 499,607.82 499,625.58" fill="none" id="ExpressApp-to-ImageController" style="stroke:#E7E7E7;stroke-width:1;"/><polygon fill="#E7E7E7" points="499,631.58,503,622.58,499,626.58,495,622.58,499,631.58" style="stroke:#E7E7E7;stroke-width:1;"/></g><!--link ExpressApp to UploadController--><g class="link" data-entity-1="ExpressApp" data-entity-2="UploadController" data-source-line="46" data-uid="lnk40" id="link_ExpressApp_UploadController"><path d="M539.97,571.42 C572.2,589.19 611.6258,610.9229 643.8358,628.6829" fill="none" id="ExpressApp-to-UploadController" style="stroke:#E7E7E7;stroke-width:1;"/><polygon fill="#E7E7E7" points="649.09,631.58,643.14,623.7316,644.7115,629.1658,639.2773,630.7372,649.09,631.58" style="stroke:#E7E7E7;stroke-width:1;"/></g><!--link ExpressApp to SwaggerController--><g class="link" data-entity-1="ExpressApp" data-entity-2="SwaggerController" data-source-line="47" data-uid="lnk41" id="link_ExpressApp_SwaggerController"><path d="M560.37,565.4 C626.33,583.21 725.8073,610.0663 799.3773,629.9263" fill="none" id="ExpressApp-to-SwaggerController" style="stroke:#E7E7E7;stroke-width:1;"/><polygon fill="#E7E7E7" points="805.17,631.49,797.5235,625.2827,800.3428,630.1869,795.4385,633.0062,805.17,631.49" style="stroke:#E7E7E7;stroke-width:1;"/></g><!--link CategoryController to DatabaseService--><g class="link" data-entity-1="CategoryController" data-entity-2="DatabaseService" data-source-line="48" data-uid="lnk42" id="link_CategoryController_DatabaseService"><path d="M166.58,678.77 C199.36,697.53 240.5022,721.0803 273.2722,739.8303" fill="none" id="CategoryController-to-DatabaseService" style="stroke:#E7E7E7;stroke-width:1;"/><polygon fill="#E7E7E7" points="278.48,742.81,272.6548,734.8685,274.1402,740.3269,268.6818,741.8122,278.48,742.81" style="stroke:#E7E7E7;stroke-width:1;"/></g><!--link PostController to DatabaseService--><g class="link" data-entity-1="PostController" data-entity-2="DatabaseService" data-source-line="49" data-uid="lnk43" id="link_PostController_DatabaseService"><path d="M318,678.77 C318,697.53 318,718.06 318,736.81" fill="none" id="PostController-to-DatabaseService" style="stroke:#E7E7E7;stroke-width:1;"/><polygon fill="#E7E7E7" points="318,742.81,322,733.81,318,737.81,314,733.81,318,742.81" style="stroke:#E7E7E7;stroke-width:1;"/></g><!--link ImageController to DatabaseService--><g class="link" data-entity-1="ImageController" data-entity-2="DatabaseService" data-source-line="50" data-uid="lnk44" id="link_ImageController_DatabaseService"><path d="M461.5,678.77 C430.43,697.53 391.6462,720.9584 360.5962,739.7084" fill="none" id="ImageController-to-DatabaseService" style="stroke:#E7E7E7;stroke-width:1;"/><polygon fill="#E7E7E7" points="355.46,742.81,365.232,741.5818,359.7401,740.2254,361.0966,734.7335,355.46,742.81" style="stroke:#E7E7E7;stroke-width:1;"/></g><!--link DatabaseService to DB--><g class="link" data-entity-1="DatabaseService" data-entity-2="DB" data-source-line="51" data-uid="lnk45" id="link_DatabaseService_DB"><path d="M318,789.97 C318,808.76 318,829.4 318,848.08" fill="none" id="DatabaseService-to-DB" style="stroke:#E7E7E7;stroke-width:1;"/><polygon fill="#E7E7E7" points="318,854.08,322,845.08,318,849.08,314,845.08,318,854.08" style="stroke:#E7E7E7;stroke-width:1;"/></g><!--link UploadController to Storage--><g class="link" data-entity-1="UploadController" data-entity-2="Storage" data-source-line="52" data-uid="lnk46" id="link_UploadController_Storage"><path d="M769.42,676.44 C830.17,692.38 915.82,715.74 990,739.28 C995.13,740.9 994.7609,740.7242 1000.0709,742.5342" fill="none" id="UploadController-to-Storage" style="stroke:#E7E7E7;stroke-width:1;"/><polygon fill="#E7E7E7" points="1005.75,744.47,998.5218,737.7802,1001.0174,742.8568,995.9407,745.3524,1005.75,744.47" style="stroke:#E7E7E7;stroke-width:1;"/></g><!--SRC=[ZLBBReCm4BpxArQScaFo0Jr4obEDb5Qqa5ELWmikGYKOsLOVglhlNOm1FuYK2sPdnxkpdgMPuW9EaWb26ffzq891j1UyLgpEuUw5qKpD8lWb0A-hfZctPyobsdDn6O9ZAPKEDbInWekV8Ti3ZxJ6oa9ZMwhe6vKiHcGeaJ3nMMRCkMHZJrovoJFvinIlyKSBtdqtWadPIpPXhxo_lC7v1AygewWLu4672zRri5DJSPfxOF952vpCG_iPXn5GR6umY9BdOwaORDSHK8a7UUTLpWG-V5anID0HRAvpvf-GrY6OpvV61Vtjuj4D3-nSiK3NdOd4u9ALSzqQky5YiVIi6xjE9Ptk7I4mEb1oZMUNxZYsqy65a6AFQE5m3mzf6kFYxv8KLl5XHfoqyrosvo7BNwgG4UnOI0bNBkHCRE2KHDTEzobleFbYh_5yHFDmnSDHTCOi-3y0]--></g></svg>